<svg width="42" height="35" viewBox="0 0 42 35" fill="none" xmlns="http://www.w3.org/2000/svg">
<path d="M7.41 15.3847C8.14777 12.4194 9.85643 9.7861 12.2639 7.90424C14.6714 6.02234 17.6393 5 20.695 5C23.7507 5 26.7186 6.02234 29.1261 7.90424C31.5336 9.7861 33.2422 12.4194 33.98 15.3847H32.78C30.7557 15.3549 28.7729 15.9599 27.11 17.1147C27.014 17.1842 26.9138 17.2477 26.81 17.3047H26.67C26.5662 17.2477 26.466 17.1842 26.37 17.1147C24.6924 15.9866 22.7166 15.3841 20.695 15.3841C18.6734 15.3841 16.6976 15.9866 15.02 17.1147C14.924 17.1842 14.8238 17.2477 14.72 17.3047H14.58C14.4762 17.2477 14.376 17.1842 14.28 17.1147C12.6171 15.9599 10.6343 15.3549 8.61 15.3847H7.41ZM30.62 21.6547C31.236 21.175 31.9995 20.924 32.78 20.9447H34.39V17.7347H32.78C31.4052 17.7181 30.0619 18.146 28.95 18.9547C28.3243 19.416 27.5674 19.6649 26.79 19.6649C26.0126 19.6649 25.2557 19.416 24.63 18.9547C23.4899 18.1611 22.1341 17.7356 20.745 17.7356C19.3559 17.7356 18.0001 18.1611 16.86 18.9547C16.2343 19.416 15.4774 19.6649 14.7 19.6649C13.9226 19.6649 13.1657 19.416 12.54 18.9547C11.4144 18.1356 10.0518 17.7072 8.66 17.7347H7V20.9447H8.61C9.39051 20.924 10.154 21.175 10.77 21.6547C11.908 22.4489 13.2623 22.8747 14.65 22.8747C16.0377 22.8747 17.392 22.4489 18.53 21.6547C19.1468 21.1765 19.9097 20.9257 20.69 20.9447C21.4708 20.9223 22.2348 21.1735 22.85 21.6547C23.9901 22.4484 25.3459 22.8738 26.735 22.8738C28.1241 22.8738 29.4799 22.4484 30.62 21.6547ZM30.62 27.3947C31.236 26.915 31.9995 26.664 32.78 26.6847H34.39V23.4747H32.78C31.4052 23.4581 30.0619 23.886 28.95 24.6947C28.3243 25.156 27.5674 25.4049 26.79 25.4049C26.0126 25.4049 25.2557 25.156 24.63 24.6947C23.4899 23.9011 22.1341 23.4757 20.745 23.4757C19.3559 23.4757 18.0001 23.9011 16.86 24.6947C16.2343 25.156 15.4774 25.4049 14.7 25.4049C13.9226 25.4049 13.1657 25.156 12.54 24.6947C11.4144 23.8757 10.0518 23.4472 8.66 23.4747H7V26.6847H8.61C9.39051 26.664 10.154 26.915 10.77 27.3947C11.908 28.1889 13.2623 28.6147 14.65 28.6147C16.0377 28.6147 17.392 28.1889 18.53 27.3947C19.1468 26.9165 19.9097 26.6657 20.69 26.6847C21.4708 26.6623 22.2348 26.9135 22.85 27.3947C23.9901 28.1884 25.3459 28.6138 26.735 28.6138C28.1241 28.6138 29.4799 28.1884 30.62 27.3947Z" fill="#394149"/>
</svg>
